<svg width="1104" height="521" xmlns="http://www.w3.org/2000/svg" xmlns:xlink="http://www.w3.org/1999/xlink" overflow="hidden"><defs><clipPath id="clip0"><path d="M88 85 1192 85 1192 606 88 606Z" fill-rule="evenodd" clip-rule="evenodd"/></clipPath></defs><g clip-path="url(#clip0)" transform="translate(-88 -85)"><path d="M89 93.2942C89 88.7134 92.7134 85 97.2942 85L1183.71 85C1188.29 85 1192 88.7134 1192 93.2942L1192 597.706C1192 602.286 1188.29 606 1183.71 606L97.2942 606C92.7134 606 89 602.286 89 597.706Z" fill="#FFFFFF" fill-rule="evenodd"/><path d="M153.5 205.923C153.5 204.033 155.033 202.5 156.923 202.5L365.077 202.5C366.968 202.5 368.5 204.033 368.5 205.923L368.5 532.077C368.5 533.968 366.968 535.5 365.077 535.5L156.923 535.5C155.033 535.5 153.5 533.968 153.5 532.077Z" stroke="#00B050" stroke-width="0.666667" stroke-miterlimit="8" stroke-opacity="0.721569" fill="#FFFF00" fill-rule="evenodd" fill-opacity="0.141176"/><text font-family="Calibri,Calibri_MSFontService,sans-serif" font-weight="400" font-size="19" transform="translate(241.017 528)">Main</text><path d="M447.5 99.8997C447.5 96.3653 450.365 93.5001 453.9 93.5001L843.1 93.5001C846.635 93.5001 849.5 96.3653 849.5 99.8997L849.5 589.1C849.5 592.635 846.635 595.5 843.1 595.5L453.9 595.5C450.365 595.5 447.5 592.635 447.5 589.1Z" stroke="#00B050" stroke-width="0.666667" stroke-miterlimit="8" stroke-opacity="0.721569" fill="#FFFF00" fill-rule="evenodd" fill-opacity="0.141176"/><text font-family="Calibri,Calibri_MSFontService,sans-serif" font-weight="400" font-size="19" transform="translate(574.893 579)">Motion Control API</text><path d="M185.5 401.783C185.5 399.97 186.97 398.5 188.783 398.5L333.217 398.5C335.03 398.5 336.5 399.97 336.5 401.783L336.5 470.217C336.5 472.03 335.03 473.5 333.217 473.5L188.783 473.5C186.97 473.5 185.5 472.03 185.5 470.217Z" stroke="#000000" stroke-width="0.666667" stroke-linejoin="round" stroke-miterlimit="10" fill="#00B0F0" fill-rule="evenodd" fill-opacity="0.580392"/><text font-family="Arial,Arial_MSFontService,sans-serif" font-weight="400" font-size="16" transform="translate(221.684 442)">Application</text><path d="M936.5 205.416C936.5 203.253 938.253 201.5 940.416 201.5L1178.58 201.5C1180.75 201.5 1182.5 203.253 1182.5 205.416L1182.5 530.584C1182.5 532.747 1180.75 534.5 1178.58 534.5L940.416 534.5C938.253 534.5 936.5 532.747 936.5 530.584Z" stroke="#00B050" stroke-width="0.666667" stroke-miterlimit="8" stroke-opacity="0.721569" fill="#FFFF00" fill-rule="evenodd" fill-opacity="0.141176"/><text font-family="Calibri,Calibri_MSFontService,sans-serif" font-weight="400" font-size="17" transform="translate(1037.83 515)">MCAF</text><path d="M212.5 261C212.5 250.23 234.438 241.5 261.5 241.5 288.562 241.5 310.5 250.23 310.5 261L310.5 339C310.5 349.77 288.562 358.5 261.5 358.5 234.438 358.5 212.5 349.77 212.5 339Z" fill="#00B0F0" fill-rule="evenodd" fill-opacity="0.580392"/><path d="M310.5 261C310.5 271.77 288.562 280.5 261.5 280.5 234.438 280.5 212.5 271.77 212.5 261" stroke="#000000" stroke-width="0.666667" stroke-linejoin="round" stroke-miterlimit="10" fill="none" fill-rule="evenodd"/><path d="M212.5 261C212.5 250.23 234.438 241.5 261.5 241.5 288.562 241.5 310.5 250.23 310.5 261L310.5 339C310.5 349.77 288.562 358.5 261.5 358.5 234.438 358.5 212.5 349.77 212.5 339Z" stroke="#000000" stroke-width="0.666667" stroke-linejoin="round" stroke-miterlimit="10" fill="none" fill-rule="evenodd"/><text font-family="Calibri,Calibri_MSFontService,sans-serif" font-weight="400" font-size="15" transform="translate(243.533 265)">motor</text><path d="M223.5 309.5C223.5 305.082 240.513 301.5 261.5 301.5 282.487 301.5 299.5 305.082 299.5 309.5L299.5 341.5C299.5 345.918 282.487 349.5 261.5 349.5 240.513 349.5 223.5 345.918 223.5 341.5Z" fill="#00B0F0" fill-rule="evenodd" fill-opacity="0.580392"/><path d="M299.5 309.5C299.5 313.918 282.487 317.5 261.5 317.5 240.513 317.5 223.5 313.918 223.5 309.5" stroke="#000000" stroke-width="0.666667" stroke-linejoin="round" stroke-miterlimit="10" fill="none" fill-rule="evenodd"/><path d="M223.5 309.5C223.5 305.082 240.513 301.5 261.5 301.5 282.487 301.5 299.5 305.082 299.5 309.5L299.5 341.5C299.5 345.918 282.487 349.5 261.5 349.5 240.513 349.5 223.5 345.918 223.5 341.5Z" stroke="#000000" stroke-width="0.666667" stroke-linejoin="round" stroke-miterlimit="10" fill="none" fill-rule="evenodd"/><text font-family="Calibri,Calibri_MSFontService,sans-serif" font-weight="400" font-size="15" transform="translate(238.017 331)">apiData</text><path d="M343.5 428.25 457.375 428.25 457.375 419.5 470.5 437 457.375 454.5 457.375 445.75 343.5 445.75 350.063 437Z" stroke="#000000" stroke-width="0.666667" stroke-miterlimit="8" fill="#00B0F0" fill-rule="evenodd" fill-opacity="0.580392"/><text font-family="Arial,Arial_MSFontService,sans-serif" font-weight="400" font-size="15" transform="translate(373.565 442)">(*apiData)</text><path d="M0.333333-7.16744e-07 0.333339 2.66667-0.333328 2.66667-0.333333 7.16744e-07ZM0.333343 4.66667 0.333349 7.33333-0.333318 7.33333-0.333323 4.66667ZM0.333353 9.33333 0.333359 12-0.333308 12-0.333313 9.33333ZM0.333363 14 0.333369 16.6667-0.333297 16.6667-0.333303 14ZM0.333373 18.6667 0.333379 21.3333-0.333287 21.3333-0.333293 18.6667ZM0.333383 23.3333 0.333389 26-0.333277 26-0.333283 23.3333ZM0.333394 28 0.333399 30.6667-0.333267 30.6667-0.333273 28ZM0.333404 32.6667 0.333409 35.3333-0.333257 35.3333-0.333263 32.6667ZM0.333414 37.3333 0.333419 40-0.333247 40-0.333253 37.3333ZM0.333424 42 0.333427 43.4925-0.33324 43.4925-0.333243 42ZM9.3519e-05 43.4925 4.00009 40.8258 0.000104987 48.8258-3.99991 40.8258Z" transform="matrix(-1 -8.74228e-08 -8.74228e-08 1 261.5 349.5)"/><text font-family="Calibri,Calibri_MSFontService,sans-serif" font-weight="400" font-size="15" transform="translate(264.315 381)">&amp;apiData</text><path d="M483.5 341.419C483.5 340.912 483.912 340.5 484.419 340.5L621.581 340.5C622.089 340.5 622.5 340.912 622.5 341.419L622.5 360.581C622.5 361.089 622.089 361.5 621.581 361.5L484.419 361.5C483.912 361.5 483.5 361.089 483.5 360.581Z" stroke="#000000" stroke-width="0.666667" stroke-linejoin="round" stroke-miterlimit="10" fill="#00B0F0" fill-rule="evenodd" fill-opacity="0.580392"/><text font-family="Arial,Arial_MSFontService,sans-serif" font-weight="400" font-size="13" transform="translate(519.759 355)">Start motor</text><path d="M483.5 362.463C483.5 361.931 483.931 361.5 484.463 361.5L621.537 361.5C622.069 361.5 622.5 361.931 622.5 362.463L622.5 382.537C622.5 383.069 622.069 383.5 621.537 383.5L484.463 383.5C483.931 383.5 483.5 383.069 483.5 382.537Z" stroke="#000000" stroke-width="0.666667" stroke-linejoin="round" stroke-miterlimit="10" fill="#00B0F0" fill-rule="evenodd" fill-opacity="0.580392"/><text font-family="Arial,Arial_MSFontService,sans-serif" font-weight="400" font-size="13" transform="translate(520.175 377)">Stop motor</text><path d="M483.5 315.419C483.5 314.912 483.912 314.5 484.419 314.5L621.581 314.5C622.089 314.5 622.5 314.912 622.5 315.419L622.5 334.581C622.5 335.089 622.089 335.5 621.581 335.5L484.419 335.5C483.912 335.5 483.5 335.089 483.5 334.581Z" stroke="#000000" stroke-width="0.666667" stroke-linejoin="round" stroke-miterlimit="10" fill="#00B0F0" fill-rule="evenodd" fill-opacity="0.580392"/><text font-family="Arial,Arial_MSFontService,sans-serif" font-weight="400" font-size="13" transform="translate(516.092 330)">Initialize API</text><path d="M483.5 500.419C483.5 499.912 483.912 499.5 484.419 499.5L621.581 499.5C622.089 499.5 622.5 499.912 622.5 500.419L622.5 519.581C622.5 520.089 622.089 520.5 621.581 520.5L484.419 520.5C483.912 520.5 483.5 520.089 483.5 519.581Z" stroke="#000000" stroke-width="0.666667" stroke-linejoin="round" stroke-miterlimit="10" fill="#00B0F0" fill-rule="evenodd" fill-opacity="0.580392"/><text font-family="Arial,Arial_MSFontService,sans-serif" font-weight="400" font-size="13" transform="translate(492.811 514)">Get full<tspan x="42" y="0">-</tspan>scale values</text><path d="M483.5 521.463C483.5 520.931 483.931 520.5 484.463 520.5L621.537 520.5C622.069 520.5 622.5 520.931 622.5 521.463L622.5 541.537C622.5 542.069 622.069 542.5 621.537 542.5L484.463 542.5C483.931 542.5 483.5 542.069 483.5 541.537Z" stroke="#000000" stroke-width="0.666667" stroke-linejoin="round" stroke-miterlimit="10" fill="#00B0F0" fill-rule="evenodd" fill-opacity="0.580392"/><text font-family="Arial,Arial_MSFontService,sans-serif" font-weight="400" font-size="13" transform="translate(488.978 536)">Get minimum velocity<tspan font-family="Calibri,Calibri_MSFontService,sans-serif" font-size="15" x="260.571" y="-263">*motor</tspan></text><path d="M970.5 397.827C970.5 395.989 971.989 394.5 973.826 394.5L1117.17 394.5C1119.01 394.5 1120.5 395.989 1120.5 397.827L1120.5 467.174C1120.5 469.011 1119.01 470.5 1117.17 470.5L973.826 470.5C971.989 470.5 970.5 469.011 970.5 467.174Z" stroke="#000000" stroke-width="0.666667" stroke-linejoin="round" stroke-miterlimit="10" fill="#00B0F0" fill-rule="evenodd" fill-opacity="0.580392"/><text font-family="Arial,Arial_MSFontService,sans-serif" font-weight="400" font-size="16" transform="translate(1022.34 428)">MCAF<tspan x="-9.7467" y="19">ADC ISR</tspan></text><path d="M0.333329-0.00161457 0.346246 2.66502-0.320413 2.66825-0.333329 0.00161457ZM0.355933 4.665 0.36885 7.33163-0.297809 7.33486-0.310725 4.66823ZM0.378537 9.33161 0.391454 11.9982-0.275205 12.0015-0.288121 9.33484ZM0.401141 13.9982 0.414058 16.6649-0.252601 16.6681-0.265518 14.0015ZM0.423745 18.6648 0.436662 21.3315-0.229997 21.3347-0.242914 18.6681ZM0.446349 23.3314 0.459266 25.9981-0.207393 26.0013-0.22031 23.3347ZM0.468953 27.9981 0.4802 30.3199-0.186459 30.3231-0.197706 28.0013ZM0.14687 30.3215 4.13391 27.6355 0.172703 35.6548-3.866 27.6743Z" transform="matrix(-1 -8.74228e-08 -8.74228e-08 1 1045.67 358.5)"/><text font-family="Calibri,Calibri_MSFontService,sans-serif" font-weight="400" font-size="15" transform="translate(1052.93 381)">&amp;motor</text><path d="M1125.65 431.789 1129.41 430.849 1129.37 430.862 1133.81 429.112 1133.76 429.132 1138.08 426.695 1138.05 426.714 1142.23 423.714 1142.21 423.734 1146.21 420.234 1146.19 420.255 1150 416.255 1149.98 416.278 1153.54 411.778 1153.53 411.798 1156.78 406.986 1156.76 407.008 1159.7 401.821 1159.69 401.84 1162.32 396.402 1162.3 396.429 1164.49 390.679 1164.48 390.699 1166.3 384.824 1166.29 384.852 1167.6 378.789 1167.6 378.816 1168.41 372.691 1168.41 372.721 1168.66 366.534 1168.66 366.571 1168.22 360.383 1168.23 360.426 1166.98 354.301 1166.99 354.339 1164.99 348.277 1165 348.311 1162.31 342.436 1162.33 342.466 1158.95 336.716 1158.97 336.745 1154.97 331.307 1154.99 331.328 1150.49 326.141 1150.51 326.164 1145.45 321.351 1145.47 321.368 1140.03 316.931 1140.05 316.947 1134.24 312.947 1134.26 312.962 1128.14 309.462 1128.16 309.474 1121.72 306.474 1121.75 306.486 1115.06 304.048 1115.09 304.058 1108.28 302.308 1108.31 302.314 1101.44 301.189 1101.47 301.193 1099.8 301.103 1099.83 300.437 1101.53 300.528 1108.43 301.658 1115.28 303.416 1121.99 305.864 1128.46 308.876 1134.61 312.39 1140.44 316.405 1145.9 320.86 1150.98 325.692 1155.5 330.902 1159.52 336.364 1162.91 342.143 1165.61 348.05 1167.63 354.149 1168.88 360.315 1169.32 366.542 1169.07 372.764 1168.26 378.917 1166.94 385.007 1165.12 390.906 1162.92 396.679 1160.29 402.14 1157.34 407.348 1154.07 412.182 1150.49 416.704 1146.66 420.726 1142.64 424.246 1138.42 427.266 1134.07 429.724 1129.59 431.49 1125.81 432.435ZM1125.73 432.112 1128.8 435.81 1120.43 432.672 1127.96 427.854ZM1099.82 300.77 1102.26 304.907 1094.49 300.485 1102.69 296.919Z"/><text font-family="Calibri,Calibri_MSFontService,sans-serif" font-weight="400" font-size="15" transform="translate(1109.54 299)">*motor</text><path d="M697.5 422.463C697.5 421.931 697.931 421.5 698.463 421.5L808.537 421.5C809.069 421.5 809.5 421.931 809.5 422.463L809.5 442.537C809.5 443.069 809.069 443.5 808.537 443.5L698.463 443.5C697.931 443.5 697.5 443.069 697.5 442.537Z" stroke="#000000" stroke-width="0.666667" stroke-linejoin="round" stroke-miterlimit="10" fill="#00B0F0" fill-rule="evenodd" fill-opacity="0.580392"/><text font-family="Arial,Arial_MSFontService,sans-serif" font-weight="400" font-size="13" transform="translate(705.57 437)">API Service ISR</text><path d="M0 8.75004 122.875 8.75004 122.875 0 136 17.5001 122.875 35 122.875 26.25 0 26.25 6.56248 17.5001Z" stroke="#000000" stroke-width="0.666667" stroke-miterlimit="8" fill="#00B0F0" fill-rule="evenodd" fill-opacity="0.580392" transform="matrix(-1 -8.74228e-08 -8.74228e-08 1 957.5 414.5)"/><text font-family="Arial,Arial_MSFontService,sans-serif" font-weight="400" font-size="15" transform="translate(862.582 437)">(*motor)</text><path d="M648.5 280.5 648.5 556.5" stroke="#000000" stroke-width="0.666667" stroke-miterlimit="8" stroke-dasharray="2.66667 2" fill="none" fill-rule="evenodd"/><text font-family="Calibri,Calibri_MSFontService,sans-serif" font-weight="400" font-size="17" transform="translate(488.999 131)">Application<tspan x="79.86" y="0">-</tspan><tspan x="85.1933" y="0">facing</tspan><tspan font-size="15" x="235.919" y="-5">MCAF</tspan><tspan font-size="15" x="230.339" y="9">Internal</tspan></text><path d="M599.5 173C599.5 162.23 621.438 153.5 648.5 153.5 675.562 153.5 697.5 162.23 697.5 173L697.5 251C697.5 261.77 675.562 270.5 648.5 270.5 621.438 270.5 599.5 261.77 599.5 251Z" fill="#00B0F0" fill-rule="evenodd" fill-opacity="0.580392"/><path d="M697.5 173C697.5 183.77 675.562 192.5 648.5 192.5 621.438 192.5 599.5 183.77 599.5 173" stroke="#595959" stroke-width="0.666667" stroke-linejoin="round" stroke-miterlimit="10" stroke-dasharray="5.33333 2" fill="none" fill-rule="evenodd"/><path d="M599.5 173C599.5 162.23 621.438 153.5 648.5 153.5 675.562 153.5 697.5 162.23 697.5 173L697.5 251C697.5 261.77 675.562 270.5 648.5 270.5 621.438 270.5 599.5 261.77 599.5 251Z" stroke="#595959" stroke-width="0.666667" stroke-linejoin="round" stroke-miterlimit="10" stroke-dasharray="5.33333 2" fill="none" fill-rule="evenodd"/><text fill="#7F7F7F" font-family="Calibri,Calibri_MSFontService,sans-serif" font-weight="400" font-size="15" transform="translate(630.756 177)">motor</text><path d="M611.5 221.5C611.5 217.082 628.289 213.5 649 213.5 669.711 213.5 686.5 217.082 686.5 221.5L686.5 253.5C686.5 257.918 669.711 261.5 649 261.5 628.289 261.5 611.5 257.918 611.5 253.5Z" fill="#00B0F0" fill-rule="evenodd" fill-opacity="0.580392"/><path d="M686.5 221.5C686.5 225.918 669.711 229.5 649 229.5 628.289 229.5 611.5 225.918 611.5 221.5" stroke="#595959" stroke-width="0.666667" stroke-linejoin="round" stroke-miterlimit="10" stroke-dasharray="5.33333 2" fill="none" fill-rule="evenodd"/><path d="M611.5 221.5C611.5 217.082 628.289 213.5 649 213.5 669.711 213.5 686.5 217.082 686.5 221.5L686.5 253.5C686.5 257.918 669.711 261.5 649 261.5 628.289 261.5 611.5 257.918 611.5 253.5Z" stroke="#595959" stroke-width="0.666667" stroke-linejoin="round" stroke-miterlimit="10" stroke-dasharray="5.33333 2" fill="none" fill-rule="evenodd"/><text fill="#7F7F7F" font-family="Calibri,Calibri_MSFontService,sans-serif" font-weight="400" font-size="15" transform="translate(625.24 243)">apiData</text><path d="M5.34289 0.0954769 5.4889 0.107225 10.9094 1.3678 16.2609 3.38247 21.483 6.08791 26.5128 9.48302 31.3499 13.5035 35.8702 18.0238 40.1382 23.045 44.0286 28.5041 47.6046 34.4013 50.6788 40.5498 53.3135 47.011 55.4467 53.6617 57.0155 60.5014 58.0198 67.4686 58.093 69.0946 57.427 69.1246 57.3545 67.515 57.3576 67.5476 56.3576 60.6101 56.3626 60.637 54.8001 53.8245 54.8076 53.8518 52.6826 47.2268 52.6913 47.2509 50.0663 40.8134 50.0769 40.8366 47.0144 34.7116 47.0275 34.7353 43.465 28.8603 43.4785 28.881 39.6035 23.4435 39.621 23.4659 35.371 18.4659 35.3893 18.4857 30.8893 13.9857 30.9119 14.0063 26.0994 10.0063 26.126 10.0263 21.126 6.65128 21.1592 6.67097 15.9717 3.98347 16.0076 3.99946 10.6951 1.99946 10.737 2.01217 5.362 0.762169 5.41077 0.76976 5.28942 0.759996ZM5.31615 0.427736 7.65343 4.62872 0 0 8.29503-3.34551ZM57.76 69.1096 61.6359 66.2656 58 74.4375 53.6441 66.6256Z" transform="matrix(-1 -8.74228e-08 -8.74228e-08 1 611.464 239.5)"/><text font-family="Calibri,Calibri_MSFontService,sans-serif" font-weight="400" font-size="15" transform="translate(507.92 262)">*apiData<tspan x="-131.489" y="202">Function</tspan><tspan x="-116.403" y="219">Call</tspan><tspan x="359.54" y="197">Function</tspan><tspan x="374.627" y="214">Call</tspan></text><path d="M691.858 239.97 692.917 240.245 696.081 241.511 699.242 243.281 702.395 245.551 705.478 248.257 708.56 251.338 711.512 254.918 714.458 258.805 717.408 263.135 722.983 272.845 728.243 283.866 733.187 296.133 737.756 309.4 741.822 323.602 745.451 338.617 748.454 354.318 750.956 370.519 752.77 387.096 753.896 403.985 754.153 415.661 753.487 415.675 753.229 404.007 753.23 404.022 752.105 387.147 752.106 387.161 750.294 370.599 750.296 370.613 747.796 354.426 747.798 354.438 744.798 338.75 744.801 338.766 741.176 323.766 741.18 323.779 737.117 309.592 737.122 309.609 732.56 296.359 732.566 296.375 727.628 284.125 727.637 284.144 722.387 273.144 722.398 273.166 716.836 263.479 716.85 263.5 713.912 259.188 713.922 259.201 710.984 255.326 710.993 255.337 708.055 251.775 708.077 251.798 705.014 248.736 705.03 248.751 701.968 246.063 701.993 246.083 698.868 243.833 698.9 243.853 695.775 242.103 695.814 242.122 692.689 240.872 692.729 240.885 691.69 240.615ZM691.774 240.293 693.817 244.644 686.5 239.5 695.006 236.733ZM753.82 415.668 757.76 412.914 753.938 421 749.762 413.09Z"/><text font-family="Calibri,Calibri_MSFontService,sans-serif" font-weight="400" font-size="15" transform="translate(687.821 344)">*apiData</text><path d="M483.5 384.737C483.5 384.054 484.054 383.5 484.737 383.5L621.263 383.5C621.946 383.5 622.5 384.054 622.5 384.737L622.5 498.263C622.5 498.946 621.946 499.5 621.263 499.5L484.737 499.5C484.054 499.5 483.5 498.946 483.5 498.263Z" stroke="#000000" stroke-width="0.666667" stroke-linejoin="round" stroke-miterlimit="10" fill="#00B0F0" fill-rule="evenodd" fill-opacity="0.580392"/><text font-family="Arial,Arial_MSFontService,sans-serif" font-weight="400" font-size="13" transform="matrix(6.12323e-17 1 -1 6.12323e-17 547.592 434)">…</text><path d="M702.858 211.966 704.423 212.372 707.841 213.891 711.249 215.911 714.653 218.495 717.988 221.641 721.255 225.222 724.455 229.301 727.653 233.815 730.786 238.829 733.856 244.217 736.8 250.042 739.679 256.176 742.497 262.751 747.815 276.89 752.757 292.218 757.136 308.608 761.014 325.934 764.329 344.009 766.956 362.71 768.957 381.91 770.146 401.361 770.464 415.661 769.798 415.675 769.479 401.382 769.48 401.395 768.292 381.958 768.294 381.972 766.294 362.785 766.295 362.796 763.67 344.109 763.672 344.123 760.36 326.06 760.362 326.073 756.487 308.76 756.491 308.774 752.116 292.399 752.12 292.415 747.183 277.102 747.188 277.117 741.876 262.992 741.881 263.006 739.069 256.444 739.073 256.454 736.198 250.329 736.203 250.338 733.265 244.525 733.273 244.54 730.21 239.165 730.217 239.177 727.092 234.177 727.103 234.193 723.916 229.693 723.925 229.706 720.738 225.643 720.754 225.662 717.504 222.1 717.521 222.118 714.209 218.993 714.236 219.016 710.861 216.453 710.893 216.474 707.518 214.474 707.552 214.492 704.177 212.992 704.229 213.01 702.691 212.612ZM702.775 212.289 704.82 216.639 697.5 211.5 706.004 208.727ZM770.131 415.668 774.071 412.913 770.25 421 766.073 413.091Z"/><path d="M648.5 107.5 648.5 144.854" stroke="#000000" stroke-width="0.666667" stroke-miterlimit="8" stroke-dasharray="2.66667 2" fill="none" fill-rule="evenodd"/><path d="M996.5 261C996.5 250.23 1018.44 241.5 1045.5 241.5 1072.56 241.5 1094.5 250.23 1094.5 261L1094.5 339C1094.5 349.77 1072.56 358.5 1045.5 358.5 1018.44 358.5 996.5 349.77 996.5 339Z" fill="#00B0F0" fill-rule="evenodd" fill-opacity="0.580392"/><path d="M1094.5 261C1094.5 271.77 1072.56 280.5 1045.5 280.5 1018.44 280.5 996.5 271.77 996.5 261" stroke="#595959" stroke-width="0.666667" stroke-linejoin="round" stroke-miterlimit="10" stroke-dasharray="5.33333 2" fill="none" fill-rule="evenodd"/><path d="M996.5 261C996.5 250.23 1018.44 241.5 1045.5 241.5 1072.56 241.5 1094.5 250.23 1094.5 261L1094.5 339C1094.5 349.77 1072.56 358.5 1045.5 358.5 1018.44 358.5 996.5 349.77 996.5 339Z" stroke="#595959" stroke-width="0.666667" stroke-linejoin="round" stroke-miterlimit="10" stroke-dasharray="5.33333 2" fill="none" fill-rule="evenodd"/><text fill="#7F7F7F" font-family="Calibri,Calibri_MSFontService,sans-serif" font-weight="400" font-size="15" transform="translate(1028.11 265)">motor</text><path d="M1008.5 309.5C1008.5 305.082 1025.29 301.5 1046 301.5 1066.71 301.5 1083.5 305.082 1083.5 309.5L1083.5 341.5C1083.5 345.918 1066.71 349.5 1046 349.5 1025.29 349.5 1008.5 345.918 1008.5 341.5Z" fill="#00B0F0" fill-rule="evenodd" fill-opacity="0.580392"/><path d="M1083.5 309.5C1083.5 313.918 1066.71 317.5 1046 317.5 1025.29 317.5 1008.5 313.918 1008.5 309.5" stroke="#595959" stroke-width="0.666667" stroke-linejoin="round" stroke-miterlimit="10" stroke-dasharray="5.33333 2" fill="none" fill-rule="evenodd"/><path d="M1008.5 309.5C1008.5 305.082 1025.29 301.5 1046 301.5 1066.71 301.5 1083.5 305.082 1083.5 309.5L1083.5 341.5C1083.5 345.918 1066.71 349.5 1046 349.5 1025.29 349.5 1008.5 345.918 1008.5 341.5Z" stroke="#595959" stroke-width="0.666667" stroke-linejoin="round" stroke-miterlimit="10" stroke-dasharray="5.33333 2" fill="none" fill-rule="evenodd"/><text fill="#7F7F7F" font-family="Calibri,Calibri_MSFontService,sans-serif" font-weight="400" font-size="15" transform="translate(1022.6 331)">apiData</text><path d="M133.5 190.167C133.5 185.38 137.38 181.5 142.167 181.5L186 181.5 186 181.5 208.5 181.5 214.833 181.5C219.62 181.5 223.5 185.38 223.5 190.167L223.5 211.833 223.5 211.833 223.5 224.833 223.5 224.833C223.5 229.62 219.62 233.5 214.833 233.5L208.5 233.5 233.64 260.125 186 233.5 142.167 233.5C137.38 233.5 133.5 229.62 133.5 224.833L133.5 224.833 133.5 211.833 133.5 211.833Z" stroke="#000000" stroke-width="0.666667" stroke-linejoin="round" stroke-miterlimit="10" fill="#8FAADC" fill-rule="evenodd" fill-opacity="0.580392"/><text font-family="Arial,Arial_MSFontService,sans-serif" font-weight="400" font-size="16" transform="translate(155.663 204)">MCAF <tspan x="-15.5" y="17">motor data</tspan></text><path d="M96.5001 274.167C96.5001 269.38 100.38 265.5 105.167 265.5L149 265.5 149 265.5 171.5 265.5 177.833 265.5C182.62 265.5 186.5 269.38 186.5 274.167L186.5 295.833 240.672 309.91 186.5 308.833 186.5 308.833C186.5 313.62 182.62 317.5 177.833 317.5L171.5 317.5 149 317.5 149 317.5 105.167 317.5C100.38 317.5 96.5001 313.62 96.5001 308.833L96.5001 308.833 96.5001 295.833 96.5001 295.833Z" stroke="#000000" stroke-width="0.666667" stroke-linejoin="round" stroke-miterlimit="10" fill="#8FAADC" fill-rule="evenodd" fill-opacity="0.580392"/><text font-family="Arial,Arial_MSFontService,sans-serif" font-weight="400" font-size="16" transform="translate(115.396 288)">MCAPI <tspan x="-12.8333" y="17">motor data</tspan></text><path d="M893.5 344.167C893.5 339.38 897.38 335.5 902.167 335.5L946 335.5 946 335.5 968.5 335.5 974.833 335.5C979.62 335.5 983.5 339.38 983.5 344.167L983.5 365.833 1039.43 376.4 983.5 378.833 983.5 378.833C983.5 383.62 979.62 387.5 974.833 387.5L968.5 387.5 946 387.5 946 387.5 902.167 387.5C897.38 387.5 893.5 383.62 893.5 378.833L893.5 378.833 893.5 365.833 893.5 365.833Z" stroke="#000000" stroke-width="0.666667" stroke-linejoin="round" stroke-miterlimit="10" fill="#8FAADC" fill-rule="evenodd" fill-opacity="0.580392"/><text font-family="Courier New,Courier New_MSFontService,sans-serif" font-weight="400" font-size="15" transform="translate(911.368 355)">extern<tspan font-family="Arial,Arial_MSFontService,sans-serif" font-size="16" x="1.66669" y="20">access</tspan></text></g></svg>