<?xml version="1.0" encoding="UTF-8"?><svg xmlns="http://www.w3.org/2000/svg" xmlns:xlink="http://www.w3.org/1999/xlink" fill-opacity="1" color-rendering="auto" color-interpolation="auto" text-rendering="auto" stroke="black" stroke-linecap="square" width="1022" stroke-miterlimit="10" shape-rendering="auto" stroke-opacity="1" fill="black" stroke-dasharray="none" font-weight="normal" stroke-width="1" height="356" font-family="'Dialog'" font-style="normal" stroke-linejoin="miter" font-size="12px" stroke-dashoffset="0" image-rendering="auto">
  <!--Generated by ySVG 2.6-->
  <defs id="genericDefs"/>
  <g>
    <defs id="defs1">
      <clipPath clipPathUnits="userSpaceOnUse" id="clipPath1">
        <path d="M0 0 L1022 0 L1022 356 L0 356 L0 0 Z"/>
      </clipPath>
      <clipPath clipPathUnits="userSpaceOnUse" id="clipPath2">
        <path d="M130 203 L1152 203 L1152 559 L130 559 L130 203 Z"/>
      </clipPath>
      <clipPath clipPathUnits="userSpaceOnUse" id="clipPath3">
        <path d="M126 199 L1148 199 L1148 555 L126 555 L126 199 Z"/>
      </clipPath>
    </defs>
    <g fill="white" text-rendering="geometricPrecision" shape-rendering="geometricPrecision" transform="translate(-130,-203)" stroke="white">
      <rect x="130" width="1022" height="356" y="203" clip-path="url(#clipPath2)" stroke="none"/>
    </g>
    <g fill="rgb(210,210,210)" text-rendering="geometricPrecision" shape-rendering="geometricPrecision" transform="matrix(1,0,0,1,-130,-203) translate(4,4)" stroke="rgb(210,210,210)">
      <rect x="546.5" width="586.5" height="321.1821" y="218.6235" clip-path="url(#clipPath3)" stroke="none"/>
    </g>
    <g fill="rgb(255,255,224)" text-rendering="geometricPrecision" shape-rendering="geometricPrecision" transform="matrix(1,0,0,1,-130,-203)" stroke="rgb(255,255,224)">
      <rect x="546.5" width="586.5" height="321.1821" y="218.6235" clip-path="url(#clipPath2)" stroke="none"/>
      <rect x="546.5" y="218.6235" clip-path="url(#clipPath2)" fill="rgb(183,182,158)" width="586.5" height="22.3765" stroke="none"/>
    </g>
    <g font-size="15px" stroke-linecap="butt" transform="matrix(1,0,0,1,-130,-203)" text-rendering="geometricPrecision" font-family="sans-serif" shape-rendering="geometricPrecision" stroke-miterlimit="1.45">
      <text x="1036.8105" xml:space="preserve" y="235.7041" clip-path="url(#clipPath2)" stroke="none">primary states</text>
      <rect fill="none" x="546.5" width="586.5" height="321.1821" y="218.6235" clip-path="url(#clipPath2)"/>
    </g>
    <g fill="rgb(210,210,210)" text-rendering="geometricPrecision" shape-rendering="geometricPrecision" transform="matrix(1,0,0,1,-130,-203) translate(4,4)" stroke="rgb(210,210,210)">
      <rect x="563" width="551" height="203.2615" y="317.5441" clip-path="url(#clipPath3)" stroke="none"/>
    </g>
    <g fill="rgb(235,235,204)" text-rendering="geometricPrecision" shape-rendering="geometricPrecision" transform="matrix(1,0,0,1,-130,-203)" stroke="rgb(235,235,204)">
      <rect x="563" width="551" height="203.2615" y="317.5441" clip-path="url(#clipPath2)" stroke="none"/>
      <rect x="563" y="317.5441" clip-path="url(#clipPath2)" fill="rgb(183,182,158)" width="551" height="22.3765" stroke="none"/>
    </g>
    <g font-size="15px" stroke-linecap="butt" transform="matrix(1,0,0,1,-130,-203)" text-rendering="geometricPrecision" font-family="sans-serif" shape-rendering="geometricPrecision" stroke-miterlimit="1.45">
      <text x="1021.9634" xml:space="preserve" y="334.6247" clip-path="url(#clipPath2)" stroke="none">normal states</text>
      <rect fill="none" x="563" width="551" height="203.2615" y="317.5441" clip-path="url(#clipPath2)"/>
    </g>
    <g fill="rgb(170,204,238)" text-rendering="geometricPrecision" shape-rendering="geometricPrecision" transform="matrix(1,0,0,1,-130,-203)" stroke="rgb(170,204,238)">
      <rect x="583" y="354.9206" clip-path="url(#clipPath2)" width="120" rx="4" ry="4" height="30" stroke="none"/>
    </g>
    <g text-rendering="geometricPrecision" stroke-miterlimit="1.45" shape-rendering="geometricPrecision" font-family="sans-serif" transform="matrix(1,0,0,1,-130,-203)" stroke-linecap="butt">
      <text x="593.3301" xml:space="preserve" y="374.6345" clip-path="url(#clipPath2)" stroke="none">MCSM_RESTART</text>
      <rect x="583" y="354.9206" clip-path="url(#clipPath2)" fill="none" width="120" rx="4" ry="4" height="30" stroke-width="3"/>
    </g>
    <g fill="rgb(170,204,238)" text-rendering="geometricPrecision" shape-rendering="geometricPrecision" transform="matrix(1,0,0,1,-130,-203)" stroke="rgb(170,204,238)">
      <rect x="763.5" y="354.9206" clip-path="url(#clipPath2)" width="120" rx="4" ry="4" height="30" stroke="none"/>
    </g>
    <g text-rendering="geometricPrecision" stroke-miterlimit="1.45" shape-rendering="geometricPrecision" font-family="sans-serif" transform="matrix(1,0,0,1,-130,-203)" stroke-linecap="butt">
      <text x="773.1592" xml:space="preserve" y="374.6345" clip-path="url(#clipPath2)" stroke="none">MCSM_STOPPED</text>
      <rect x="763.5" y="354.9206" clip-path="url(#clipPath2)" fill="none" width="120" rx="4" ry="4" height="30"/>
    </g>
    <g fill="rgb(170,204,238)" text-rendering="geometricPrecision" shape-rendering="geometricPrecision" transform="matrix(1,0,0,1,-130,-203)" stroke="rgb(170,204,238)">
      <rect x="934" y="354.9206" clip-path="url(#clipPath2)" width="120" rx="4" ry="4" height="30" stroke="none"/>
    </g>
    <g text-rendering="geometricPrecision" stroke-miterlimit="1.45" shape-rendering="geometricPrecision" font-family="sans-serif" transform="matrix(1,0,0,1,-130,-203)" stroke-linecap="butt">
      <text x="941.998" xml:space="preserve" y="374.6345" clip-path="url(#clipPath2)" stroke="none">MCSM_STARTING</text>
      <rect x="934" y="354.9206" clip-path="url(#clipPath2)" fill="none" width="120" rx="4" ry="4" height="30"/>
    </g>
    <g fill="rgb(170,204,238)" text-rendering="geometricPrecision" shape-rendering="geometricPrecision" transform="matrix(1,0,0,1,-130,-203)" stroke="rgb(170,204,238)">
      <rect x="934" y="448.8412" clip-path="url(#clipPath2)" width="120" rx="4" ry="4" height="30" stroke="none"/>
    </g>
    <g text-rendering="geometricPrecision" stroke-miterlimit="1.45" shape-rendering="geometricPrecision" font-family="sans-serif" transform="matrix(1,0,0,1,-130,-203)" stroke-linecap="butt">
      <text x="944.333" xml:space="preserve" y="468.5551" clip-path="url(#clipPath2)" stroke="none">MCSM_RUNNING</text>
      <rect x="934" y="448.8412" clip-path="url(#clipPath2)" fill="none" width="120" rx="4" ry="4" height="30"/>
    </g>
    <g fill="rgb(170,204,238)" text-rendering="geometricPrecision" shape-rendering="geometricPrecision" transform="matrix(1,0,0,1,-130,-203)" stroke="rgb(170,204,238)">
      <rect x="763.5" y="448.8412" clip-path="url(#clipPath2)" width="120" rx="4" ry="4" height="30" stroke="none"/>
    </g>
    <g text-rendering="geometricPrecision" stroke-miterlimit="1.45" shape-rendering="geometricPrecision" font-family="sans-serif" transform="matrix(1,0,0,1,-130,-203)" stroke-linecap="butt">
      <text x="770.8271" xml:space="preserve" y="468.5551" clip-path="url(#clipPath2)" stroke="none">MCSM_STOPPING</text>
      <rect x="763.5" y="448.8412" clip-path="url(#clipPath2)" fill="none" width="120" rx="4" ry="4" height="30"/>
    </g>
    <g fill="rgb(170,204,238)" text-rendering="geometricPrecision" shape-rendering="geometricPrecision" transform="matrix(1,0,0,1,-130,-203)" stroke="rgb(170,204,238)">
      <rect x="589.5" y="256" clip-path="url(#clipPath2)" width="107" rx="4" ry="4" height="30" stroke="none"/>
    </g>
    <g text-rendering="geometricPrecision" stroke-miterlimit="1.45" shape-rendering="geometricPrecision" font-family="sans-serif" transform="matrix(1,0,0,1,-130,-203)" stroke-linecap="butt">
      <text x="602.3301" xml:space="preserve" y="275.7139" clip-path="url(#clipPath2)" stroke="none">MCSM_FAULT</text>
      <rect x="589.5" y="256" clip-path="url(#clipPath2)" fill="none" width="107" rx="4" ry="4" height="30"/>
      <path fill="none" d="M702.9757 369.9206 L752.5027 369.9206" clip-path="url(#clipPath2)"/>
      <path d="M763.5027 369.9206 L751.5027 363.9206 L751.5027 375.9206 Z" clip-path="url(#clipPath2)" stroke="none"/>
      <text x="706.2441" xml:space="preserve" y="363.2839" clip-path="url(#clipPath2)" stroke="none">AT_REST</text>
      <path fill="none" d="M883.483 369.9206 L923.0197 369.9206" clip-path="url(#clipPath2)"/>
      <path d="M934.0197 369.9206 L922.0197 363.9206 L922.0197 375.9206 Z" clip-path="url(#clipPath2)" stroke="none"/>
      <text x="895.751" xml:space="preserve" y="363.2839" clip-path="url(#clipPath2)" stroke="none">RUN</text>
      <path fill="none" d="M994 384.9167 L994 437.8502" clip-path="url(#clipPath2)"/>
      <path d="M994 448.8502 L1000 436.8502 L988 436.8502 Z" clip-path="url(#clipPath2)" stroke="none"/>
      <text x="998" xml:space="preserve" y="421.5948" clip-path="url(#clipPath2)" stroke="none">START_COMPLETE</text>
      <path fill="none" d="M643 384.9167 L643 463.8412 L752.5243 463.8412" clip-path="url(#clipPath2)"/>
      <path d="M763.5243 463.8412 L751.5243 457.8412 L751.5243 469.8412 Z" clip-path="url(#clipPath2)" stroke="none"/>
      <text x="592.3281" xml:space="preserve" y="436.2701" clip-path="url(#clipPath2)" stroke="none">READY</text>
      <path fill="none" d="M966.735 384.9396 L860.3761 443.5278" clip-path="url(#clipPath2)"/>
      <path d="M850.7412 448.8353 L864.147 448.3007 L858.3571 437.7899 Z" clip-path="url(#clipPath2)" stroke="none"/>
      <text x="870.2957" xml:space="preserve" y="414.1675" clip-path="url(#clipPath2)" stroke="none">!RUN</text>
      <path fill="none" d="M934.017 463.8412 L894.4803 463.8412" clip-path="url(#clipPath2)"/>
      <path d="M883.4803 463.8412 L895.4803 469.8412 L895.4803 457.8412 Z" clip-path="url(#clipPath2)" stroke="none"/>
      <text x="894.084" xml:space="preserve" y="457.2045" clip-path="url(#clipPath2)" stroke="none">!RUN</text>
      <path fill="none" d="M823.5 448.8451 L823.5 395.9116" clip-path="url(#clipPath2)"/>
      <path d="M823.5 384.9116 L817.5 396.9116 L829.5 396.9116 Z" clip-path="url(#clipPath2)" stroke="none"/>
      <text x="714.1426" xml:space="preserve" y="421.5948" clip-path="url(#clipPath2)" stroke="none">STOP_COMPLETE</text>
      <path fill="none" d="M823.5 478.8122 L823.5 504.2905 L994 504.2905 L994 489.8122" clip-path="url(#clipPath2)"/>
      <path d="M994 478.8122 L988 490.8122 L1000 490.8122 Z" clip-path="url(#clipPath2)" stroke="none"/>
      <text x="883.0801" xml:space="preserve" y="497.6537" clip-path="url(#clipPath2)" stroke="none">RESUME</text>
      <path fill="none" d="M838.5 317.5441 L838.5 271 L707.5048 271" clip-path="url(#clipPath2)"/>
      <path d="M696.5048 271 L708.5048 277 L708.5048 265 Z" clip-path="url(#clipPath2)" stroke="none"/>
      <text x="753.0605" xml:space="preserve" y="264.3633" clip-path="url(#clipPath2)" stroke="none">FAULT</text>
      <path fill="none" d="M643 286.0216 L643 343.886" clip-path="url(#clipPath2)"/>
      <path d="M643 354.886 L649 342.886 L637 342.886 Z" clip-path="url(#clipPath2)" stroke="none"/>
      <text x="647" xml:space="preserve" y="310.1895" clip-path="url(#clipPath2)" stroke="none">CLEAR_FAULT</text>
    </g>
    <g fill="rgb(210,210,210)" text-rendering="geometricPrecision" shape-rendering="geometricPrecision" transform="matrix(1,0,0,1,-130,-203) translate(4,4)" stroke="rgb(210,210,210)">
      <rect x="145.5878" width="259.115" height="320.5941" y="218.6235" clip-path="url(#clipPath3)" stroke="none"/>
    </g>
    <g fill="rgb(255,255,224)" text-rendering="geometricPrecision" shape-rendering="geometricPrecision" transform="matrix(1,0,0,1,-130,-203)" stroke="rgb(255,255,224)">
      <rect x="145.5878" width="259.115" height="320.5941" y="218.6235" clip-path="url(#clipPath2)" stroke="none"/>
      <rect x="145.5878" y="218.6235" clip-path="url(#clipPath2)" fill="rgb(183,182,158)" width="259.115" height="22.3765" stroke="none"/>
    </g>
    <g font-size="15px" stroke-linecap="butt" transform="matrix(1,0,0,1,-130,-203)" text-rendering="geometricPrecision" font-family="sans-serif" shape-rendering="geometricPrecision" stroke-miterlimit="1.45">
      <text x="289.3092" xml:space="preserve" y="235.7041" clip-path="url(#clipPath2)" stroke="none">secondary states</text>
      <rect fill="none" x="145.5878" width="259.115" height="320.5941" y="218.6235" clip-path="url(#clipPath2)"/>
    </g>
    <g fill="rgb(170,204,238)" text-rendering="geometricPrecision" shape-rendering="geometricPrecision" transform="matrix(1,0,0,1,-130,-203)" stroke="rgb(170,204,238)">
      <rect x="189.8536" y="463.4538" clip-path="url(#clipPath2)" width="184" rx="4" ry="4" height="30" stroke="none"/>
    </g>
    <g text-rendering="geometricPrecision" stroke-miterlimit="1.45" shape-rendering="geometricPrecision" font-family="sans-serif" transform="matrix(1,0,0,1,-130,-203)" stroke-linecap="butt">
      <text x="217.8371" xml:space="preserve" y="483.1677" clip-path="url(#clipPath2)" stroke="none">MCSM_TEST_ENABLE</text>
      <rect x="189.8536" y="463.4538" clip-path="url(#clipPath2)" fill="none" width="184" rx="4" ry="4" height="30"/>
    </g>
    <g fill="rgb(170,204,238)" text-rendering="geometricPrecision" shape-rendering="geometricPrecision" transform="matrix(1,0,0,1,-130,-203)" stroke="rgb(170,204,238)">
      <rect x="189.8536" y="394.4538" clip-path="url(#clipPath2)" width="184" rx="4" ry="4" height="30" stroke="none"/>
    </g>
    <g text-rendering="geometricPrecision" stroke-miterlimit="1.45" shape-rendering="geometricPrecision" font-family="sans-serif" transform="matrix(1,0,0,1,-130,-203)" stroke-linecap="butt">
      <text x="216.1701" xml:space="preserve" y="414.1677" clip-path="url(#clipPath2)" stroke="none">MCSM_TEST_DISABLE</text>
      <rect x="189.8536" y="394.4538" clip-path="url(#clipPath2)" fill="none" width="184" rx="4" ry="4" height="30"/>
    </g>
    <g fill="rgb(170,204,238)" text-rendering="geometricPrecision" shape-rendering="geometricPrecision" transform="matrix(1,0,0,1,-130,-203)" stroke="rgb(170,204,238)">
      <rect x="189.8536" y="285.8941" clip-path="url(#clipPath2)" width="184" rx="4" ry="4" height="30" stroke="none"/>
    </g>
    <g text-rendering="geometricPrecision" stroke-miterlimit="1.45" shape-rendering="geometricPrecision" font-family="sans-serif" transform="matrix(1,0,0,1,-130,-203)" stroke-linecap="butt">
      <text x="213.5128" xml:space="preserve" y="305.608" clip-path="url(#clipPath2)" stroke="none">MCSM_TEST_RESTART</text>
      <rect x="189.8536" y="285.8941" clip-path="url(#clipPath2)" fill="none" width="184" rx="4" ry="4" height="30"/>
      <path fill="none" d="M404.7318 369.9206 L571.9966 369.9206" clip-path="url(#clipPath2)"/>
      <path d="M582.9966 369.9206 L570.9966 363.9206 L570.9966 375.9206 Z" clip-path="url(#clipPath2)" stroke="none"/>
      <text x="411.7028" xml:space="preserve" y="363.2839" clip-path="url(#clipPath2)" stroke="none">TEST_EXIT</text>
      <path fill="none" d="M404.701 271 L578.5049 271" clip-path="url(#clipPath2)"/>
      <path d="M589.5049 271 L577.5049 265 L577.5049 277 Z" clip-path="url(#clipPath2)" stroke="none"/>
      <text x="416.8278" xml:space="preserve" y="264.3633" clip-path="url(#clipPath2)" stroke="none">TEST_EXIT_FAULT</text>
      <path fill="none" d="M546.4766 478.4538 L384.8838 478.4538" clip-path="url(#clipPath2)"/>
      <path d="M373.8838 478.4538 L385.8838 484.4538 L385.8838 472.4538 Z" clip-path="url(#clipPath2)" stroke="none"/>
      <text x="449.6777" xml:space="preserve" y="471.8171" clip-path="url(#clipPath2)" stroke="none">TEST_ENABLE</text>
      <path fill="none" d="M270.7421 463.4442 L270.7421 435.4425" clip-path="url(#clipPath2)"/>
      <path d="M270.7421 424.4425 L264.7421 436.4425 L276.7421 436.4425 Z" clip-path="url(#clipPath2)" stroke="none"/>
      <text x="178.7108" xml:space="preserve" y="448.6432" clip-path="url(#clipPath2)" stroke="none">TEST_DISABLE</text>
      <path fill="none" d="M546.4911 409.4538 L384.8242 409.4538" clip-path="url(#clipPath2)"/>
      <path d="M373.8242 409.4538 L385.8242 415.4538 L385.8242 403.4538 Z" clip-path="url(#clipPath2)" stroke="none"/>
      <text x="446.3438" xml:space="preserve" y="402.8171" clip-path="url(#clipPath2)" stroke="none">TEST_DISABLE</text>
      <path fill="none" d="M292.754 424.4331 L292.754 452.4495" clip-path="url(#clipPath2)"/>
      <path d="M292.754 463.4495 L298.754 451.4495 L286.754 451.4495 Z" clip-path="url(#clipPath2)" stroke="none"/>
      <text x="296.754" xml:space="preserve" y="448.6921" clip-path="url(#clipPath2)" stroke="none">TEST_ENABLE</text>
      <path fill="none" d="M617.3647 286.0168 L617.3647 300.8941 L384.8817 300.8941" clip-path="url(#clipPath2)"/>
      <path d="M373.8817 300.8941 L385.8817 306.8941 L385.8817 294.8941 Z" clip-path="url(#clipPath2)" stroke="none"/>
      <text x="419.0491" xml:space="preserve" y="295.5877" clip-path="url(#clipPath2)" stroke="none">TEST_CLEAR_FAULT</text>
      <path fill="none" d="M270.075 394.4471 L270.075 326.8706" clip-path="url(#clipPath2)"/>
      <path d="M270.075 315.8706 L264.075 327.8706 L276.075 327.8706 Z" clip-path="url(#clipPath2)" stroke="none"/>
      <text x="173.1145" xml:space="preserve" y="348.5483" clip-path="url(#clipPath2)" stroke="none">TEST_RESTART</text>
      <path fill="none" d="M546.4545 335.1638 L343.5 335.1638 L343.5 326.9206" clip-path="url(#clipPath2)"/>
      <path d="M343.5 315.9206 L337.5 327.9206 L349.5 327.9206 Z" clip-path="url(#clipPath2)" stroke="none"/>
      <text x="441.0293" xml:space="preserve" y="328.527" clip-path="url(#clipPath2)" stroke="none">TEST_RESTART</text>
      <path fill="none" d="M189.8376 478.4538 L156.6801 478.4538 L156.6801 293.5568 L178.8481 293.5568" clip-path="url(#clipPath2)"/>
      <path d="M189.8481 293.5568 L177.8481 287.5568 L177.8481 299.5568 Z" clip-path="url(#clipPath2)" stroke="none"/>
      <text x="147.5832" xml:space="preserve" y="279.5451" clip-path="url(#clipPath2)" stroke="none">TEST_RESTART</text>
      <path fill="none" d="M292.087 315.8757 L292.087 383.4292" clip-path="url(#clipPath2)"/>
      <path d="M292.087 394.4292 L298.087 382.4292 L286.087 382.4292 Z" clip-path="url(#clipPath2)" stroke="none"/>
      <text x="296.2401" xml:space="preserve" y="363.3606" clip-path="url(#clipPath2)" stroke="none">TEST_READY</text>
    </g>
  </g>
</svg>
