<?xml version="1.0" encoding="UTF-8"?><svg xmlns="http://www.w3.org/2000/svg" xmlns:xlink="http://www.w3.org/1999/xlink" fill-opacity="1" color-rendering="auto" color-interpolation="auto" text-rendering="auto" stroke="black" stroke-linecap="square" width="982" stroke-miterlimit="10" shape-rendering="auto" stroke-opacity="1" fill="black" stroke-dasharray="none" font-weight="normal" stroke-width="1" height="356" font-family="'Dialog'" font-style="normal" stroke-linejoin="miter" font-size="12px" stroke-dashoffset="0" image-rendering="auto">
  <!--Generated by ySVG 2.5-->
  <defs id="genericDefs"/>
  <g>
    <defs id="defs1">
      <clipPath clipPathUnits="userSpaceOnUse" id="clipPath1">
        <path d="M0 0 L982 0 L982 356 L0 356 L0 0 Z"/>
      </clipPath>
      <clipPath clipPathUnits="userSpaceOnUse" id="clipPath2">
        <path d="M170 203 L1152 203 L1152 559 L170 559 L170 203 Z"/>
      </clipPath>
      <clipPath clipPathUnits="userSpaceOnUse" id="clipPath3">
        <path d="M166 199 L1148 199 L1148 555 L166 555 L166 199 Z"/>
      </clipPath>
    </defs>
    <g fill="white" text-rendering="geometricPrecision" shape-rendering="geometricPrecision" transform="translate(-170,-203)" stroke="white">
      <rect x="170" width="982" height="356" y="203" clip-path="url(#clipPath2)" stroke="none"/>
    </g>
    <g fill="rgb(210,210,210)" text-rendering="geometricPrecision" shape-rendering="geometricPrecision" transform="matrix(1,0,0,1,-170,-203) translate(4,4)" stroke="rgb(210,210,210)">
      <rect x="546.5" width="586.5" height="321.1821" y="218.6235" clip-path="url(#clipPath3)" stroke="none"/>
    </g>
    <g fill="rgb(255,255,224)" text-rendering="geometricPrecision" shape-rendering="geometricPrecision" transform="matrix(1,0,0,1,-170,-203)" stroke="rgb(255,255,224)">
      <rect x="546.5" width="586.5" height="321.1821" y="218.6235" clip-path="url(#clipPath2)" stroke="none"/>
      <rect x="546.5" y="218.6235" clip-path="url(#clipPath2)" fill="rgb(183,182,158)" width="586.5" height="22.3765" stroke="none"/>
    </g>
    <g font-size="15px" stroke-linecap="butt" transform="matrix(1,0,0,1,-170,-203)" text-rendering="geometricPrecision" font-family="sans-serif" shape-rendering="geometricPrecision" stroke-miterlimit="1.45">
      <text x="1036.8105" xml:space="preserve" y="235.7041" clip-path="url(#clipPath2)" stroke="none">primary states</text>
      <rect fill="none" x="546.5" width="586.5" height="321.1821" y="218.6235" clip-path="url(#clipPath2)"/>
    </g>
    <g fill="rgb(210,210,210)" text-rendering="geometricPrecision" shape-rendering="geometricPrecision" transform="matrix(1,0,0,1,-170,-203) translate(4,4)" stroke="rgb(210,210,210)">
      <rect x="563" width="551" height="203.2615" y="317.5441" clip-path="url(#clipPath3)" stroke="none"/>
    </g>
    <g fill="rgb(235,235,204)" text-rendering="geometricPrecision" shape-rendering="geometricPrecision" transform="matrix(1,0,0,1,-170,-203)" stroke="rgb(235,235,204)">
      <rect x="563" width="551" height="203.2615" y="317.5441" clip-path="url(#clipPath2)" stroke="none"/>
      <rect x="563" y="317.5441" clip-path="url(#clipPath2)" fill="rgb(183,182,158)" width="551" height="22.3765" stroke="none"/>
    </g>
    <g font-size="15px" stroke-linecap="butt" transform="matrix(1,0,0,1,-170,-203)" text-rendering="geometricPrecision" font-family="sans-serif" shape-rendering="geometricPrecision" stroke-miterlimit="1.45">
      <text x="1021.9634" xml:space="preserve" y="334.6247" clip-path="url(#clipPath2)" stroke="none">normal states</text>
      <rect fill="none" x="563" width="551" height="203.2615" y="317.5441" clip-path="url(#clipPath2)"/>
    </g>
    <g fill="rgb(170,204,238)" text-rendering="geometricPrecision" shape-rendering="geometricPrecision" transform="matrix(1,0,0,1,-170,-203)" stroke="rgb(170,204,238)">
      <rect x="583" y="354.9206" clip-path="url(#clipPath2)" width="120" rx="4" ry="4" height="30" stroke="none"/>
    </g>
    <g text-rendering="geometricPrecision" stroke-miterlimit="1.45" shape-rendering="geometricPrecision" font-family="sans-serif" transform="matrix(1,0,0,1,-170,-203)" stroke-linecap="butt">
      <text x="593.3301" xml:space="preserve" y="374.6345" clip-path="url(#clipPath2)" stroke="none">MCSM_RESTART</text>
      <rect x="583" y="354.9206" clip-path="url(#clipPath2)" fill="none" width="120" rx="4" ry="4" height="30" stroke-width="3"/>
    </g>
    <g fill="rgb(170,204,238)" text-rendering="geometricPrecision" shape-rendering="geometricPrecision" transform="matrix(1,0,0,1,-170,-203)" stroke="rgb(170,204,238)">
      <rect x="763.5" y="354.9206" clip-path="url(#clipPath2)" width="120" rx="4" ry="4" height="30" stroke="none"/>
    </g>
    <g text-rendering="geometricPrecision" stroke-miterlimit="1.45" shape-rendering="geometricPrecision" font-family="sans-serif" transform="matrix(1,0,0,1,-170,-203)" stroke-linecap="butt">
      <text x="773.1592" xml:space="preserve" y="374.6345" clip-path="url(#clipPath2)" stroke="none">MCSM_STOPPED</text>
      <rect x="763.5" y="354.9206" clip-path="url(#clipPath2)" fill="none" width="120" rx="4" ry="4" height="30"/>
    </g>
    <g fill="rgb(170,204,238)" text-rendering="geometricPrecision" shape-rendering="geometricPrecision" transform="matrix(1,0,0,1,-170,-203)" stroke="rgb(170,204,238)">
      <rect x="934" y="354.9206" clip-path="url(#clipPath2)" width="120" rx="4" ry="4" height="30" stroke="none"/>
    </g>
    <g text-rendering="geometricPrecision" stroke-miterlimit="1.45" shape-rendering="geometricPrecision" font-family="sans-serif" transform="matrix(1,0,0,1,-170,-203)" stroke-linecap="butt">
      <text x="941.998" xml:space="preserve" y="374.6345" clip-path="url(#clipPath2)" stroke="none">MCSM_STARTING</text>
      <rect x="934" y="354.9206" clip-path="url(#clipPath2)" fill="none" width="120" rx="4" ry="4" height="30"/>
    </g>
    <g fill="rgb(170,204,238)" text-rendering="geometricPrecision" shape-rendering="geometricPrecision" transform="matrix(1,0,0,1,-170,-203)" stroke="rgb(170,204,238)">
      <rect x="934" y="448.8412" clip-path="url(#clipPath2)" width="120" rx="4" ry="4" height="30" stroke="none"/>
    </g>
    <g text-rendering="geometricPrecision" stroke-miterlimit="1.45" shape-rendering="geometricPrecision" font-family="sans-serif" transform="matrix(1,0,0,1,-170,-203)" stroke-linecap="butt">
      <text x="944.333" xml:space="preserve" y="468.5551" clip-path="url(#clipPath2)" stroke="none">MCSM_RUNNING</text>
      <rect x="934" y="448.8412" clip-path="url(#clipPath2)" fill="none" width="120" rx="4" ry="4" height="30"/>
    </g>
    <g fill="rgb(170,204,238)" text-rendering="geometricPrecision" shape-rendering="geometricPrecision" transform="matrix(1,0,0,1,-170,-203)" stroke="rgb(170,204,238)">
      <rect x="763.5" y="448.8412" clip-path="url(#clipPath2)" width="120" rx="4" ry="4" height="30" stroke="none"/>
    </g>
    <g text-rendering="geometricPrecision" stroke-miterlimit="1.45" shape-rendering="geometricPrecision" font-family="sans-serif" transform="matrix(1,0,0,1,-170,-203)" stroke-linecap="butt">
      <text x="770.8271" xml:space="preserve" y="468.5551" clip-path="url(#clipPath2)" stroke="none">MCSM_STOPPING</text>
      <rect x="763.5" y="448.8412" clip-path="url(#clipPath2)" fill="none" width="120" rx="4" ry="4" height="30"/>
    </g>
    <g fill="rgb(170,204,238)" text-rendering="geometricPrecision" shape-rendering="geometricPrecision" transform="matrix(1,0,0,1,-170,-203)" stroke="rgb(170,204,238)">
      <rect x="589.5" y="256" clip-path="url(#clipPath2)" width="107" rx="4" ry="4" height="30" stroke="none"/>
    </g>
    <g text-rendering="geometricPrecision" stroke-miterlimit="1.45" shape-rendering="geometricPrecision" font-family="sans-serif" transform="matrix(1,0,0,1,-170,-203)" stroke-linecap="butt">
      <text x="602.3301" xml:space="preserve" y="275.7139" clip-path="url(#clipPath2)" stroke="none">MCSM_FAULT</text>
      <rect x="589.5" y="256" clip-path="url(#clipPath2)" fill="none" width="107" rx="4" ry="4" height="30"/>
      <path fill="none" d="M702.9757 369.9206 L752.5027 369.9206" clip-path="url(#clipPath2)"/>
      <path d="M763.5027 369.9206 L751.5027 363.9206 L751.5027 375.9206 Z" clip-path="url(#clipPath2)" stroke="none"/>
      <text x="706.2441" xml:space="preserve" y="364.2839" clip-path="url(#clipPath2)" stroke="none">AT_REST</text>
      <path fill="none" d="M883.483 369.9206 L923.0197 369.9206" clip-path="url(#clipPath2)"/>
      <path d="M934.0197 369.9206 L922.0197 363.9206 L922.0197 375.9206 Z" clip-path="url(#clipPath2)" stroke="none"/>
      <text x="895.751" xml:space="preserve" y="363.2839" clip-path="url(#clipPath2)" stroke="none">RUN</text>
      <path fill="none" d="M994 384.9167 L994 437.8502" clip-path="url(#clipPath2)"/>
      <path d="M994 448.8502 L1000 436.8502 L988 436.8502 Z" clip-path="url(#clipPath2)" stroke="none"/>
      <text x="998" xml:space="preserve" y="421.5948" clip-path="url(#clipPath2)" stroke="none">START_COMPLETE</text>
      <path fill="none" d="M643 384.9167 L643 463.8412 L752.5243 463.8412" clip-path="url(#clipPath2)"/>
      <path d="M763.5243 463.8412 L751.5243 457.8412 L751.5243 469.8412 Z" clip-path="url(#clipPath2)" stroke="none"/>
      <text x="592.3281" xml:space="preserve" y="436.2701" clip-path="url(#clipPath2)" stroke="none">READY</text>
      <path fill="none" d="M966.735 384.9396 L860.3761 443.5278" clip-path="url(#clipPath2)"/>
      <path d="M850.7412 448.8353 L864.147 448.3007 L858.3571 437.7899 Z" clip-path="url(#clipPath2)" stroke="none"/>
      <text x="870.2957" xml:space="preserve" y="414.1675" clip-path="url(#clipPath2)" stroke="none">!RUN</text>
      <path fill="none" d="M934.017 463.8412 L894.4803 463.8412" clip-path="url(#clipPath2)"/>
      <path d="M883.4803 463.8412 L895.4803 469.8412 L895.4803 457.8412 Z" clip-path="url(#clipPath2)" stroke="none"/>
      <text x="894.084" xml:space="preserve" y="457.2045" clip-path="url(#clipPath2)" stroke="none">!RUN</text>
      <path fill="none" d="M823.5 448.8451 L823.5 395.9116" clip-path="url(#clipPath2)"/>
      <path d="M823.5 384.9116 L817.5 396.9116 L829.5 396.9116 Z" clip-path="url(#clipPath2)" stroke="none"/>
      <text x="714.1426" xml:space="preserve" y="421.5948" clip-path="url(#clipPath2)" stroke="none">STOP_COMPLETE</text>
      <path fill="none" d="M823.5 478.8122 L823.5 504.2905 L994 504.2905 L994 489.8122" clip-path="url(#clipPath2)"/>
      <path d="M994 478.8122 L988 490.8122 L1000 490.8122 Z" clip-path="url(#clipPath2)" stroke="none"/>
      <text x="883.0801" xml:space="preserve" y="497.6537" clip-path="url(#clipPath2)" stroke="none">RESUME</text>
      <path fill="none" d="M838.5 317.5441 L838.5 271 L707.5048 271" clip-path="url(#clipPath2)"/>
      <path d="M696.5048 271 L708.5048 277 L708.5048 265 Z" clip-path="url(#clipPath2)" stroke="none"/>
      <text x="753.0605" xml:space="preserve" y="264.3633" clip-path="url(#clipPath2)" stroke="none">FAULT</text>
      <path fill="none" d="M643 286.0216 L643 343.886" clip-path="url(#clipPath2)"/>
      <path d="M643 354.886 L649 342.886 L637 342.886 Z" clip-path="url(#clipPath2)" stroke="none"/>
      <text x="647" xml:space="preserve" y="310.1895" clip-path="url(#clipPath2)" stroke="none">CLEAR_FAULT</text>
    </g>
    <g fill="rgb(210,210,210)" text-rendering="geometricPrecision" shape-rendering="geometricPrecision" transform="matrix(1,0,0,1,-170,-203) translate(4,4)" stroke="rgb(210,210,210)">
      <rect x="185" width="237" height="320.5941" y="218.6235" clip-path="url(#clipPath3)" stroke="none"/>
    </g>
    <g fill="rgb(255,255,224)" text-rendering="geometricPrecision" shape-rendering="geometricPrecision" transform="matrix(1,0,0,1,-170,-203)" stroke="rgb(255,255,224)">
      <rect x="185" width="237" height="320.5941" y="218.6235" clip-path="url(#clipPath2)" stroke="none"/>
      <rect x="185" y="218.6235" clip-path="url(#clipPath2)" fill="rgb(183,182,158)" width="237" height="22.3765" stroke="none"/>
    </g>
    <g font-size="15px" stroke-linecap="butt" transform="matrix(1,0,0,1,-170,-203)" text-rendering="geometricPrecision" font-family="sans-serif" shape-rendering="geometricPrecision" stroke-miterlimit="1.45">
      <text x="306.6064" xml:space="preserve" y="235.7041" clip-path="url(#clipPath2)" stroke="none">secondary states</text>
      <rect fill="none" x="185" width="237" height="320.5941" y="218.6235" clip-path="url(#clipPath2)"/>
    </g>
    <g fill="rgb(170,204,238)" text-rendering="geometricPrecision" shape-rendering="geometricPrecision" transform="matrix(1,0,0,1,-170,-203)" stroke="rgb(170,204,238)">
      <rect x="213" y="313.5" clip-path="url(#clipPath2)" width="184" rx="4" ry="4" height="30" stroke="none"/>
    </g>
    <g text-rendering="geometricPrecision" stroke-miterlimit="1.45" shape-rendering="geometricPrecision" font-family="sans-serif" transform="matrix(1,0,0,1,-170,-203)" stroke-linecap="butt">
      <text x="239.3164" xml:space="preserve" y="333.2139" clip-path="url(#clipPath2)" stroke="none">MCSM_TEST_DISABLE</text>
      <rect x="213" y="313.5" clip-path="url(#clipPath2)" fill="none" width="184" rx="4" ry="4" height="30"/>
    </g>
    <g fill="rgb(170,204,238)" text-rendering="geometricPrecision" shape-rendering="geometricPrecision" transform="matrix(1,0,0,1,-170,-203)" stroke="rgb(170,204,238)">
      <rect x="213" y="380.4903" clip-path="url(#clipPath2)" width="184" rx="4" ry="4" height="30" stroke="none"/>
    </g>
    <g text-rendering="geometricPrecision" stroke-miterlimit="1.45" shape-rendering="geometricPrecision" font-family="sans-serif" transform="matrix(1,0,0,1,-170,-203)" stroke-linecap="butt">
      <text x="240.9834" xml:space="preserve" y="400.2041" clip-path="url(#clipPath2)" stroke="none">MCSM_TEST_ENABLE</text>
      <rect x="213" y="380.4903" clip-path="url(#clipPath2)" fill="none" width="184" rx="4" ry="4" height="30"/>
      <path fill="none" d="M422.0192 271 L578.5082 271" clip-path="url(#clipPath2)"/>
      <path d="M589.5082 271 L577.5082 265 L577.5082 277 Z" clip-path="url(#clipPath2)" stroke="none"/>
      <text x="434.125" xml:space="preserve" y="264.3633" clip-path="url(#clipPath2)" stroke="none">TEST_EXIT_FAULT</text>
      <path fill="none" d="M422.0231 369.9206 L571.9813 369.9206" clip-path="url(#clipPath2)"/>
      <path d="M582.9813 369.9206 L570.9813 363.9206 L570.9813 375.9206 Z" clip-path="url(#clipPath2)" stroke="none"/>
      <text x="429" xml:space="preserve" y="363.2839" clip-path="url(#clipPath2)" stroke="none">TEST_EXIT</text>
      <path fill="none" d="M546.4929 328.7762 L408.0043 328.6178" clip-path="url(#clipPath2)"/>
      <path d="M397.0043 328.6053 L408.9974 334.619 L409.0111 322.619 Z" clip-path="url(#clipPath2)" stroke="none"/>
      <text x="446.3438" xml:space="preserve" y="322.0227" clip-path="url(#clipPath2)" stroke="none">TEST_DISABLE</text>
      <path fill="none" d="M276.7458 343.4992 L276.7458 369.4739" clip-path="url(#clipPath2)"/>
      <path d="M276.7458 380.4739 L282.7458 368.4739 L270.7458 368.4739 Z" clip-path="url(#clipPath2)" stroke="none"/>
      <text x="188.0485" xml:space="preserve" y="366.709" clip-path="url(#clipPath2)" stroke="none">TEST_ENABLE</text>
      <path fill="none" d="M546.4982 395.4903 L408.0063 395.4903" clip-path="url(#clipPath2)"/>
      <path d="M397.0063 395.4903 L409.0063 401.4903 L409.0063 389.4903 Z" clip-path="url(#clipPath2)" stroke="none"/>
      <text x="449.6777" xml:space="preserve" y="388.8535" clip-path="url(#clipPath2)" stroke="none">TEST_ENABLE</text>
      <path fill="none" d="M329 380.5128 L329 354.5186" clip-path="url(#clipPath2)"/>
      <path d="M329 343.5186 L323 355.5186 L335 355.5186 Z" clip-path="url(#clipPath2)" stroke="none"/>
      <text x="333" xml:space="preserve" y="366.709" clip-path="url(#clipPath2)" stroke="none">TEST_DISABLE</text>
    </g>
  </g>
</svg>
